# xmcd
#
# Track frame offsets:
#	150
#	15393
#	34406
#	53510
#	67325
#	85645
#	105627
#	124002
#	135133
#	157825
#	169252
#	181665
#
# Disc length: 2624 seconds
#
# Revision: 1
# Processed by: cddbd v1.5.2PL0 Copyright (c) Steve Scherf et al.
# Submitted via: audiograbber 1.83.01
#
DISCID=8a0a3e0c
DTITLE=Ernest Lee and Cotton Traffic - Rhythm and Rhyme
DYEAR=1997
DGENRE=Blues
TTITLE0=Wrong Space
TTITLE1=Sunday Morning Blues
TTITLE2=Big Mama's Medicine Show
TTITLE3=14 Calendar Street
TTITLE4=Gone From Me
TTITLE5=Hi-way
TTITLE6=Rhythm and Rhyme
TTITLE7=My Boat
TTITLE8=Desire
TTITLE9=Judge a Book
TTITLE10=Little Fishies
TTITLE11=My Own Dream
EXTD=
EXTT0=
EXTT1=
EXTT2=
EXTT3=
EXTT4=
EXTT5=
EXTT6=
EXTT7=
EXTT8=
EXTT9=
EXTT10=
EXTT11=
PLAYORDER=
